<?xml version="1.0" encoding="UTF-8" standalone="no"?>
<svg xmlns="http://www.w3.org/2000/svg" viewBox="0 0 400 300">
  <!-- Leaf Symbol -->
  <g fill="#39A935">
    <path d="M240,50 C250,60 260,90 240,140 C235,130 230,110 230,90 C230,70 235,55 240,50 Z" />
    <path d="M270,60 C290,80 300,120 270,160 C260,145 250,115 260,80 C262,70 265,65 270,60 Z" />
    <path d="M210,60 C190,80 180,120 210,160 C220,145 230,115 220,80 C218,70 215,65 210,60 Z" />
  </g>
  
  <!-- Green Stem -->
  <path fill="#39A935" d="M240,140 C240,150 240,160 240,180 C240,190 240,200 240,210 Z" />
  
  <!-- Green Arc -->
  <path fill="none" stroke="#39A935" d="M205,150 C200,160 190,170 180,177 C160,190 140,195 120,195" />
  
  <!-- Green Text -->
  <text x="280" y="210" font-family="Arial, sans-serif" font-size="16" font-weight="bold" fill="#39A935">GUARD</text>
  
  <!-- Black Calligraphic "Green" -->
  <path fill="#000000" d="M120,170 C140,150 160,140 180,150 C190,155 195,165 190,175 C185,185 170,190 155,185 C150,183 145,180 140,175 L130,190 C145,200 160,205 175,200 C190,195 200,180 195,165 C190,150 180,140 160,145 C150,147 140,150 125,165 Z" />
</svg>